<svg width="60" height="60" viewBox="0 0 60 60" fill="none" xmlns="http://www.w3.org/2000/svg">
<path d="M35.3333 31.3333V26" stroke="#5AC8FA" stroke-width="1.5" stroke-linecap="round"/>
<path fill-rule="evenodd" clip-rule="evenodd" d="M14 36C14 32.6863 16.6863 30 20 30H40C43.3137 30 46 32.6863 46 36V40C46 43.3137 43.3137 46 40 46H20C16.6863 46 14 43.3137 14 40V36ZM28.5833 38C28.5833 37.5858 28.9191 37.25 29.3333 37.25H39.3333C39.7475 37.25 40.0833 37.5858 40.0833 38C40.0833 38.4142 39.7475 38.75 39.3333 38.75H29.3333C28.9191 38.75 28.5833 38.4142 28.5833 38ZM22.6667 35.3333C21.1939 35.3333 20 36.5272 20 38C20 39.4728 21.1939 40.6667 22.6667 40.6667C24.1394 40.6667 25.3333 39.4728 25.3333 38C25.3333 36.5272 24.1394 35.3333 22.6667 35.3333Z" fill="#5AC8FA"/>
<path d="M39.3333 24.6666C39.3333 22.4575 37.5425 20.6666 35.3333 20.6666C33.1242 20.6666 31.3333 22.4575 31.3333 24.6666" stroke="#5AC8FA" stroke-width="1.5" stroke-linecap="round" stroke-linejoin="round"/>
<path d="M44.6667 24.6667C44.6667 19.512 40.488 15.3334 35.3333 15.3334C30.1787 15.3334 26 19.512 26 24.6667" stroke="#5AC8FA" stroke-width="1.5" stroke-linecap="round" stroke-linejoin="round"/>
<rect opacity="0.15" width="60" height="60" rx="12" fill="#5AC8FA"/>
</svg>
