<svg width="60" height="60" viewBox="0 0 60 60" fill="none" xmlns="http://www.w3.org/2000/svg">
<rect opacity="0.15" width="60" height="60" rx="12" fill="#34C759"/>
<path d="M34 24.6667C34 22.4575 32.2091 20.6667 30 20.6667C27.7909 20.6667 26 22.4575 26 24.6667" stroke="#34C759" stroke-width="1.5" stroke-linecap="round" stroke-linejoin="round"/>
<path d="M39.3334 24.6666C39.3334 19.512 35.1547 15.3333 30 15.3333C24.8454 15.3333 20.6667 19.512 20.6667 24.6666" stroke="#34C759" stroke-width="1.5" stroke-linecap="round" stroke-linejoin="round"/>
<path fill-rule="evenodd" clip-rule="evenodd" d="M38 32.6667C38 30.4575 36.2091 28.6667 34 28.6667H26C23.7909 28.6667 22 30.4575 22 32.6667V38C22 42.4183 25.5817 46 30 46C34.4183 46 38 42.4183 38 38L38 32.6667ZM30 35.3334C28.5272 35.3334 27.3333 36.5273 27.3333 38C27.3333 39.4728 28.5272 40.6667 30 40.6667C31.4728 40.6667 32.6667 39.4728 32.6667 38C32.6667 36.5273 31.4728 35.3334 30 35.3334Z" fill="#34C759"/>
</svg>
