<svg width="60" height="60" viewBox="0 0 60 60" fill="none" xmlns="http://www.w3.org/2000/svg">
<path fill-rule="evenodd" clip-rule="evenodd" d="M20.6667 18.05C20.6667 16.6027 20.6667 15.879 20.9572 15.3302C21.1917 14.8873 21.5539 14.5251 21.9968 14.2906C22.5457 14 23.2693 14 24.7167 14H35.2833C36.7307 14 37.4543 14 38.0031 14.2906C38.446 14.5251 38.8082 14.8873 39.0427 15.3302C39.3333 15.879 39.3333 16.6027 39.3333 18.05V41.95C39.3333 43.3973 39.3333 44.121 39.0427 44.6698C38.8082 45.1127 38.446 45.4749 38.0031 45.7094C37.4543 46 36.7307 46 35.2833 46H24.7167C23.2693 46 22.5457 46 21.9968 45.7094C21.5539 45.4749 21.1917 45.1127 20.9572 44.6698C20.6667 44.121 20.6667 43.3973 20.6667 41.95V18.05ZM23.3333 21.1667C23.3333 20.8905 23.5572 20.6667 23.8333 20.6667H25.5C25.7761 20.6667 26 20.8905 26 21.1667V22.8333C26 23.1095 25.7761 23.3333 25.5 23.3333H23.8333C23.5572 23.3333 23.3333 23.1095 23.3333 22.8333V21.1667ZM28.6667 21.1667C28.6667 20.8905 28.8905 20.6667 29.1667 20.6667H30.8333C31.1095 20.6667 31.3333 20.8905 31.3333 21.1667V22.8333C31.3333 23.1095 31.1095 23.3333 30.8333 23.3333H29.1667C28.8905 23.3333 28.6667 23.1095 28.6667 22.8333V21.1667ZM34.5 20.6667C34.2238 20.6667 34 20.8905 34 21.1667V22.8333C34 23.1095 34.2238 23.3333 34.5 23.3333H36.1667C36.4428 23.3333 36.6667 23.1095 36.6667 22.8333V21.1667C36.6667 20.8905 36.4428 20.6667 36.1667 20.6667H34.5ZM23.3333 26.5C23.3333 26.2239 23.5572 26 23.8333 26H25.5C25.7761 26 26 26.2239 26 26.5V28.1667C26 28.4428 25.7761 28.6667 25.5 28.6667H23.8333C23.5572 28.6667 23.3333 28.4428 23.3333 28.1667V26.5ZM29.1667 26C28.8905 26 28.6667 26.2239 28.6667 26.5V28.1667C28.6667 28.4428 28.8905 28.6667 29.1667 28.6667H30.8333C31.1095 28.6667 31.3333 28.4428 31.3333 28.1667V26.5C31.3333 26.2239 31.1095 26 30.8333 26H29.1667ZM34 26.5C34 26.2239 34.2238 26 34.5 26H36.1667C36.4428 26 36.6667 26.2239 36.6667 26.5V28.1667C36.6667 28.4428 36.4428 28.6667 36.1667 28.6667H34.5C34.2238 28.6667 34 28.4428 34 28.1667V26.5ZM23.8333 31.3333C23.5572 31.3333 23.3333 31.5572 23.3333 31.8333V33.5C23.3333 33.7761 23.5572 34 23.8333 34H25.5C25.7761 34 26 33.7761 26 33.5V31.8333C26 31.5572 25.7761 31.3333 25.5 31.3333H23.8333ZM28.6667 31.8333C28.6667 31.5572 28.8905 31.3333 29.1667 31.3333H30.8333C31.1095 31.3333 31.3333 31.5572 31.3333 31.8333V33.5C31.3333 33.7761 31.1095 34 30.8333 34H29.1667C28.8905 34 28.6667 33.7761 28.6667 33.5V31.8333ZM23.8333 40.6667C23.5572 40.6667 23.3333 40.8905 23.3333 41.1667V42.8333C23.3333 43.1095 23.5572 43.3333 23.8333 43.3333H25.5C25.7761 43.3333 26 43.1095 26 42.8333V41.1667C26 40.8905 25.7761 40.6667 25.5 40.6667H23.8333ZM28.6667 41.1667C28.6667 40.8905 28.8905 40.6667 29.1667 40.6667H30.8333C31.1095 40.6667 31.3333 40.8905 31.3333 41.1667V42.8333C31.3333 43.1095 31.1095 43.3333 30.8333 43.3333H29.1667C28.8905 43.3333 28.6667 43.1095 28.6667 42.8333V41.1667ZM34.5 40.6667C34.2238 40.6667 34 40.8905 34 41.1667V42.8333C34 43.1095 34.2238 43.3333 34.5 43.3333H36.1667C36.4428 43.3333 36.6667 43.1095 36.6667 42.8333V41.1667C36.6667 40.8905 36.4428 40.6667 36.1667 40.6667H34.5ZM26.5 15.3333C26.2238 15.3333 26 15.5572 26 15.8333V16.3333C26 16.8856 26.4477 17.3333 27 17.3333H33C33.5523 17.3333 34 16.8856 34 16.3333V15.8333C34 15.5572 33.7761 15.3333 33.5 15.3333H26.5Z" fill="#FFCC00"/>
<rect opacity="0.15" width="60" height="60" rx="12" fill="#FFCC00"/>
</svg>
