<svg width="60" height="60" viewBox="0 0 60 60" fill="none" xmlns="http://www.w3.org/2000/svg">
<g clip-path="url(#clip0_2_468)">
<rect x="15" y="20" width="30" height="10" rx="2" fill="#5856D6"/>
<rect x="22" y="17" width="16" height="2" rx="1" fill="#5856D6"/>
<path fill-rule="evenodd" clip-rule="evenodd" d="M38.6667 56.6667H22V31H38.6667V40.9815V56.6667ZM25 34.5C24.7239 34.5 24.5 34.7239 24.5 35C24.5 35.2761 24.7239 35.5 25 35.5H36C36.2761 35.5 36.5 35.2761 36.5 35C36.5 34.7239 36.2761 34.5 36 34.5H25ZM25 37.5C24.7239 37.5 24.5 37.7239 24.5 38C24.5 38.2761 24.7239 38.5 25 38.5H36C36.2761 38.5 36.5 38.2761 36.5 38C36.5 37.7239 36.2761 37.5 36 37.5H25ZM25 40.5C24.7239 40.5 24.5 40.7239 24.5 41C24.5 41.2761 24.7239 41.5 25 41.5H36C36.2761 41.5 36.5 41.2761 36.5 41C36.5 40.7239 36.2761 40.5 36 40.5H25Z" fill="#5856D6"/>
</g>
<rect opacity="0.15" width="60" height="60" rx="12" fill="#5856D6"/>
<defs>
<clipPath id="clip0_2_468">
<rect width="32" height="32" fill="white" transform="translate(14 14)"/>
</clipPath>
</defs>
</svg>
