<svg width="60" height="60" viewBox="0 0 60 60" fill="none" xmlns="http://www.w3.org/2000/svg">
<path fill-rule="evenodd" clip-rule="evenodd" d="M22 19.3333C17.5817 19.3333 14 22.915 14 27.3333C14 31.7516 17.5817 35.3333 22 35.3333H38C42.4183 35.3333 46 31.7516 46 27.3333C46 22.915 42.4183 19.3333 38 19.3333H22ZM30 23.9166C28.113 23.9166 26.5833 25.4463 26.5833 27.3333C26.5833 29.2203 28.113 30.75 30 30.75C31.887 30.75 33.4167 29.2203 33.4167 27.3333C33.4167 25.4463 31.887 23.9166 30 23.9166ZM28.0833 27.3333C28.0833 26.2748 28.9415 25.4166 30 25.4166C31.0585 25.4166 31.9167 26.2748 31.9167 27.3333C31.9167 28.3919 31.0585 29.25 30 29.25C28.9415 29.25 28.0833 28.3919 28.0833 27.3333Z" fill="#007AFF"/>
<path d="M38 40.6667L34.6667 36.6667H25.3333L22 40.6667H38Z" fill="#007AFF"/>
<path d="M33 34H19" stroke="#007AFF" stroke-width="1.5" stroke-linecap="round"/>
<path d="M33 34H19" stroke="#007AFF" stroke-width="1.5" stroke-linecap="round"/>
<rect opacity="0.15" width="60" height="60" rx="12" fill="#007AFF"/>
</svg>
